<?xml version="1.0" encoding="utf-8"?>
<!-- Generator: Adobe Illustrator 27.5.0, SVG Export Plug-In . SVG Version: 6.00 Build 0)  -->
<svg version="1.1" xmlns="http://www.w3.org/2000/svg" xmlns:xlink="http://www.w3.org/1999/xlink" x="0px" y="0px"
	 viewBox="0 0 500 500" style="enable-background:new 0 0 500 500;" xml:space="preserve">
<g id="Background_Simple">
	<g>
		<path style="fill:#92E3A9;" d="M30.279,146.234c-3.332,5.515-6.357,11.263-9.031,17.269
			c-21.523,48.34-17.104,94.249-4.703,142.795c12.809,50.137,37.034,103.939,79.169,136.224c9.918,7.6,21.116,13.851,33.462,17.003
			c46.502,11.87,104.234-6.254,162.637,3.475c58.402,9.73,118.317-2.241,152.316-56.867c14.388-23.118,23.374-47.622,28.756-73.83
			c6.627-32.268,21.356-64.888,22.064-98.486c0.744-35.313-13.222-74.4-36.194-100.84c-26.21-30.166-68.517-33.554-104.008-48.359
			c-27.979-11.671-52.244-30.52-80.536-41.492c-43.344-16.81-99.001-17.447-139.675,9.204
			C95.08,78.184,54.551,106.053,30.279,146.234z"/>
		<path style="opacity:0.7;fill:#FFFFFF;" d="M30.279,146.234c-3.332,5.515-6.357,11.263-9.031,17.269
			c-21.523,48.34-17.104,94.249-4.703,142.795c12.809,50.137,37.034,103.939,79.169,136.224c9.918,7.6,21.116,13.851,33.462,17.003
			c46.502,11.87,104.234-6.254,162.637,3.475c58.402,9.73,118.317-2.241,152.316-56.867c14.388-23.118,23.374-47.622,28.756-73.83
			c6.627-32.268,21.356-64.888,22.064-98.486c0.744-35.313-13.222-74.4-36.194-100.84c-26.21-30.166-68.517-33.554-104.008-48.359
			c-27.979-11.671-52.244-30.52-80.536-41.492c-43.344-16.81-99.001-17.447-139.675,9.204
			C95.08,78.184,54.551,106.053,30.279,146.234z"/>
	</g>
</g>
<g id="Table">
	<line style="fill:none;stroke:#263238;stroke-miterlimit:10;" x1="31.072" y1="298.203" x2="481.22" y2="298.203"/>
</g>
<g id="Plant_00000110436716791300983830000001435049852555601547_">
	<g>
		<path style="fill:#92E3A9;" d="M88.494,183.48c0,0-1.582-27.412-20.032-55.877c-18.45-28.466-35.319-45.335-35.319-45.335
			s-2.109,30.575,12.652,64.312c14.76,33.737,42.172,43.753,42.172,43.753L88.494,183.48z"/>
		<path d="M187.113,253.489c0,0-31.149-13.062-71.34-44.211c-40.192-31.149-60.288-67.321-60.288-67.321s9.815,26.763,37.227,54.702
			c27.412,27.939,73.8,50.079,83.289,59.04c9.489,8.962,16.341,10.543,17.396,7.907C194.451,260.97,187.113,253.489,187.113,253.489
			z"/>
		<path style="fill:#92E3A9;" d="M131.193,209.837c0,0-16.869-20.559-21.086-52.188S126.976,52.22,126.976,52.22
			s16.869,50.079,24.249,94.886C158.605,191.914,131.193,209.837,131.193,209.837z"/>
		<polygon points="129.612,220.38 124.867,117.587 135.41,224.07 		"/>
		<path style="fill:#92E3A9;" d="M160.47,225.875c0,0-8.041-25.349-0.228-56.286c7.814-30.937,54.766-91.655,54.766-91.655
			s-2.907,52.764-12.67,97.113C192.574,219.396,160.47,225.875,160.47,225.875z"/>
		<polygon points="155.092,235.08 188.808,137.857 159.108,240.657 		"/>
		<path style="fill:#92E3A9;" d="M128.03,224.07c0,0-21.086-12.124-47.443-2.636c-26.357,9.489-52.715,46.916-52.715,46.916
			s42.699,1.054,62.73-5.799C110.634,255.699,128.03,224.07,128.03,224.07z"/>
		<polygon points="129.612,220.38 66.354,244.629 135.41,224.07 		"/>
		<path style="fill:#92E3A9;" d="M159.693,248.701c0,0-24.216-2.276-44.255,17.299c-20.039,19.575-28.479,64.567-28.479,64.567
			s39.283-16.768,54.661-31.319C156.998,284.697,159.693,248.701,159.693,248.701z"/>
		<polygon points="159.599,244.687 112.118,293.01 166.406,245.637 		"/>
	</g>
</g>
<g id="Cup">
	<ellipse cx="254.652" cy="397.334" rx="171.272" ry="76.765"/>
	<g>
		<ellipse style="fill:#D4D4D4;stroke:#263238;stroke-miterlimit:10;" cx="253.605" cy="392.088" rx="178.312" ry="75.746"/>
		<g>
			<path style="fill:#FFFFFF;stroke:#263238;stroke-miterlimit:10;" d="M449.922,370.311c0,55.542-86.883,92.094-194.059,92.094
				S61.804,428.664,61.804,370.311c0-48.195,86.883-87.265,194.059-87.265S449.922,322.116,449.922,370.311z"/>
			<path style="opacity:0.25;fill:#FFFFFF;stroke:#263238;stroke-miterlimit:10;" d="M449.922,370.311
				c0,55.542-86.883,92.094-194.059,92.094S61.804,428.664,61.804,370.311c0-48.195,86.883-87.265,194.059-87.265
				S449.922,322.116,449.922,370.311z"/>
			<path style="fill:#92E3A9;stroke:#263238;stroke-miterlimit:10;" d="M449.922,370.311c0,55.542-86.883,92.094-194.059,92.094
				S61.804,428.664,61.804,370.311c0-48.195,86.883-87.265,194.059-87.265S449.922,322.116,449.922,370.311z"/>
			<ellipse style="fill:#FFFFFF;stroke:#263238;stroke-miterlimit:10;" cx="255.863" cy="369.028" rx="194.059" ry="85.982"/>
			<g>
				<g style="opacity:0.46;">
					<path d="M104.776,392.735c1.185,5.115,3.874,13.142,4.017,13.139c-0.402-0.018-2.265-12.374-3.289-18.54
						c-1.368-5.884-0.792-6.81-0.904-6.801c-0.468-0.243-0.931-0.487-1.388-0.734C103.045,379.803,103.082,387.856,104.776,392.735z
						"/>
					<path d="M103.445,386.246c-0.006,0.02-6.315-0.57-12.316,1.349c-6.307,1.926-7.747,10.832-7.5,10.834
						c0.014,0.027,9.136-0.889,14.032-4.084C102.388,391.227,103.374,386.249,103.445,386.246z"/>
					<path d="M104.959,394.736c0.003-0.003-7.35,3.042-9.489,5.369c-2.343,2.345-2.246,9.295-2.114,9.295
						c0.032,0.009,10.108-3.329,11.069-6.805C105.314,399.205,104.918,394.74,104.959,394.736z"/>
					<path d="M105.218,411.094c0.345,3.43,10.243,10.889,10.44,10.825c-0.114-0.032,2.98-8.171,0.587-11.065
						c-2.515-2.841-7.451-4.968-7.452-4.979C108.817,405.873,104.644,407.813,105.218,411.094z"/>
					<path d="M112.137,401.838c3.211,2.385,13.075,5.81,13.129,5.763c0.037-0.005-0.976-0.799-3.604-4.222
						c-2.655-3.199-14.671-7.621-14.578-7.713C107.047,395.665,108.834,399.578,112.137,401.838z"/>
					<path d="M116.71,396.294c5.2,1.265,17.57-1.78,17.542-1.786c-0.095,0.026-6.192-3.915-10.954-3.872
						c-4.828,0.138-17.005,0.903-17.009,0.869C106.235,391.521,111.562,395.111,116.71,396.294z"/>
					<path d="M104.6,380.533c-0.051,0,1.936,4.041,6.507,5.852c4.597,1.888,12.379,1.994,12.361,1.986
						c0.007,0-1.582-1.586-2.864-3.831c-1.287-2.171-5.662-4.319-5.65-4.335c1.749-0.284,3.497-0.572,5.244-0.864
						c-0.039,0.003-2.196-2.749-6.422-3.206c-4.225-0.444-10.186,0.728-10.19,0.735C103.852,378.087,104.189,379.309,104.6,380.533z
						"/>
				</g>
				<g style="opacity:0.46;">
					<path d="M86.293,357.712c-0.011-0.014-5.997,2.522-8.305,2.72c-2.322,0.188-4.443-0.773-4.435-0.778
						c-0.007-0.008,4.399-1.982,6.008-2.197c1.602-0.223,5.56-0.323,5.561-0.325c-0.004,0.008-5.132-0.62-5.622-1.729
						c-0.507-1.077-1.26-2.367-1.256-2.369c-0.001,0.001,3.61,0.084,4.684,0.411c1.068,0.338,3.275,1.181,3.486,1.363
						c0.216,0.19-1.811-1.6-1.378-4.317c0.338-2.62,1.747-6.254,1.785-6.26c0.014-0.005,1.17,0.31,2.303,1.898
						c1.004,1.643-0.42,6.739-0.299,6.722c1.159-0.98,2.345-1.946,3.556-2.897c-0.041,0.007-0.811,2.822-0.945,3.159
						c-0.188,0.347-0.671,1.32-0.666,1.32c-0.004-0.002,1.999-1.232,3.484-1.217c1.487,0.01,1.487,0.009,1.487,0.009
						c-0.011,0.004-0.504,1.668-2.701,2.872C90.816,357.317,86.296,357.715,86.293,357.712z"/>
					<path d="M82.842,350.36c0.005,0-4.417-0.194-5.272-1.42c-1.004-1.168,0.721-6.135,0.844-6.158
						c0.011-0.005,1.266,0.892,3.074,2.452C83.255,346.84,82.79,350.367,82.842,350.36z"/>
				</g>
				<g style="opacity:0.46;">
					<path d="M130.926,352.294c-0.017,0.017,5.043,0.954,7.493,0.63c2.432-0.31,5.319-1.398,5.322-1.394
						c-0.009,0.009-3.631-0.697-5.243-0.614c-1.619,0.092-5.91,0.688-5.911,0.69c0.001-0.008,6.074-1.386,7.516-2.289
						c1.429-0.915,3.497-1.982,3.499-1.98c0.001-0.001-4.155,0.527-5.658,0.94c-1.508,0.406-4.677,1.426-5.051,1.617
						c-0.367,0.184,3.198-1.617,5.614-3.707c2.336-2.075,5.854-4.734,5.873-4.729c0.005,0.005-1.798,0.273-5.221,1.626
						c-3.556,1.355-7.332,5.52-7.241,5.523c-0.381-0.669-0.722-1.345-1.023-2.027c-0.03-0.002-2.023,2.347-2.099,2.624
						c-0.115,0.276-0.402,1.051-0.398,1.051c-0.006,0.003-1.158-0.771-2.786-0.543c-1.633,0.233-1.633,0.234-1.633,0.233
						c-0.007-0.003-0.893,1.467,0.677,2.159C126.234,352.801,130.931,352.29,130.926,352.294z"/>
					<path d="M141.126,345.839c0.003-0.001,5.214-0.646,7.628-1.593c2.332-0.975,7.345-4.228,7.402-4.211
						c0.003,0.004-2.847,0.609-7.126,1.846C144.685,343.115,141.09,345.837,141.126,345.839z"/>
				</g>
				<g>
					<path style="fill:#92E3A9;" d="M101.976,367.41c-0.067,0.044-0.142,0.12-0.222,0.214
						C101.892,367.484,101.976,367.41,101.976,367.41z"/>
					<path style="fill:#92E3A9;" d="M101.159,350.527c-4.872,1.797-6.715,3.834-7.849,4.401c-1.154,0.573-3.475,1.391-3.475,1.393
						c0.019,0-4.311,1.12-7.304,3.843c-3.028,2.782-3.813,4.625-4.112,5.059c-0.3,0.439-1.396,1.945-1.372,3.039
						c0.001,1.101-0.799,3.21,3.225,3.39c0,0-0.615-0.021-1.399,0.033c-1.268,0.087-2.999,0.375-3.289,1.313
						c-0.486,1.55,3.72,3.156,4.746,4.419c1.025,1.296,1.483,2.581,4.422,3.634c2.934,1.075,5.471,3.935,9.9,3.169
						c4.39-0.758,7.251-2.659,7.439-3.285c0.177-0.63,1.122-1.136,1.121-1.136c-0.018,0.016,4.034,1.54,7.226,0.324
						c3.166-1.189,8.012-2.746,9.584-3.771c1.511-1.042,5.619-4.828,5.977-6.298c0.327-1.477,1.497-1.229,0.082-2.918
						c-1.342-1.668-3.29-2.247-3.301-2.246c0.004-0.021,5.304-2.73,4.621-4.909c-0.655-2.163-2.251-2.999-2.269-2.998
						c0.016-0.007,1.209-0.847,0.425-2.67c-0.785-1.761-6.202-3.426-6.185-3.448c-0.027,0.018-2.905-1.602-7.762-0.754
						c-4.882,0.882-4.884,0.895-4.883,0.891C106.7,351.021,105.957,348.781,101.159,350.527z M105.677,355.995
						c-0.615,1.653-0.881,2.346-2.058,3.704c-0.257,0.3-0.488,0.601-0.692,0.889c-0.034,0.124-0.068,0.249-0.1,0.373
						c0.819-0.402,1.641-0.8,2.464-1.194c-0.138,0.349-0.27,0.698-0.396,1.048c0.019-0.009,0.04-0.018,0.059-0.026
						c0.866-0.619,1.742-1.231,2.626-1.834c-0.144,0.299-0.284,0.599-0.42,0.899c4.299-1.631,11.842-2.311,11.839-2.32
						c0.001,0.004-1.533,0.358-6.586,1.559c-2.357,0.561-3.983,1.392-5.037,2.129c-0.146,0.191-0.291,0.382-0.434,0.574
						c1.078-0.44,2.157-0.874,3.238-1.302c-0.709,0.514-1.411,1.033-2.106,1.558c0.938-0.151,1.875-0.301,2.813-0.451
						c-0.721,0.366-1.44,0.736-2.157,1.11c1.405-0.084,2.812-0.17,4.223-0.26c-1.134,0.407-2.267,0.819-3.4,1.237
						c0.916,0.02,1.918,0.094,2.947,0.198c0.115-0.001,0.23-0.003,0.346-0.004c-0.042,0.009-0.085,0.018-0.127,0.027
						c4.213,0.456,8.863,1.282,8.87,1.275c0,0-2.995-0.227-6.171-0.477c-1.699-0.132-4.13-0.122-6.015-0.092
						c-0.707,0.151-1.413,0.303-2.12,0.456c-0.012,0.006,1.938,1.323,2.656,1.702c0.13,0.04,0.212,0.074,0.23,0.097
						c0.027,0.036-0.065-0.006-0.23-0.097c-0.926-0.278-4.193-0.965-4.187-0.971c0.228,0.967,0.508,1.932,0.841,2.896
						c-0.606-0.553-1.188-1.112-1.746-1.676c-0.024,0.001-0.536,2.36-0.683,2.839c-0.173,0.48-0.009,0.002-0.476-0.813
						c-0.198-0.348-0.311-0.832-0.367-1.272c-3.191,4.545-1.251,10.992-1.128,10.952c-3.555-3.51-3.049-6.792-2.048-8.832
						c-0.104-0.426-0.212-1.062-0.17-1.643c0.069-0.98,1.383-1.917,1.382-1.916c0,0-1.068,0.164-2.135,0.625
						c-1.077,0.459-3.074,1.989-3.067,1.991c0.002,0-0.005,0,0.339-0.814c0.341-0.814,3.566-2.265,3.568-2.261
						c-1.621,0.415-3.242,0.834-4.864,1.259c0.72-0.461,1.443-0.917,2.17-1.368c-0.142-0.009-0.284-0.018-0.426-0.027
						c-4.272,1.143-14.264,4.662-14.25,4.685c-0.005-0.009,7.583-2.874,12.239-4.818c-0.23-0.016-0.461-0.032-0.69-0.048
						c0.432-0.07,0.864-0.141,1.296-0.211c0.793-0.343,1.469-0.654,1.967-0.917c-0.632-0.346-1.251-0.696-1.858-1.05
						c0.898,0.097,1.801,0.191,2.708,0.281c-1.145-0.548-4.768-4.727-5.386-5.799c-0.11-0.115-0.174-0.191-0.178-0.212
						c-0.004-0.028,0.061,0.053,0.178,0.212c0.605,0.668,2.917,2.649,4.775,3.939c-0.006-0.019-0.011-0.038-0.016-0.057
						c0.627,0.275,1.264,0.547,1.91,0.815c-0.056-0.417-0.103-0.834-0.141-1.251c0.279,0.225,0.562,0.449,0.85,0.671
						c0.201-0.325,0.435-0.687,0.683-1.047c0.121-0.671,0.264-1.34,0.428-2.007c0.199,0.182,0.401,0.364,0.606,0.545
						c1.26-1.993,4.37-6.034,4.426-6.03C106.49,353.445,106.303,354.367,105.677,355.995z"/>
				</g>
				<g style="opacity:0.46;">
					<path d="M122.872,319.676c-6.558,4.688-11.759,9.494-15.619,14.339c0.558-0.178,1.116-0.354,1.674-0.529
						c-0.151,0.024,4.204-5.727,8.512-9.217C121.423,320.914,122.925,319.673,122.872,319.676z"/>
					<path d="M116.42,322.517c0.586-1.365-2.088-2.428-2.09-2.431c-0.116,0.016-3.631,4.149-3.276,5.386
						c0.214,1.281,2.771,1.335,2.759,1.339C113.763,326.82,115.737,323.924,116.42,322.517z"/>
					<path d="M129.229,312.963c-0.047,0.002-4.194,2.66-5.084,3.671c-1.017,1.038-1.304,3.051-1.274,3.042
						c0.012-0.002,2.312-1.51,5.323-3.567C131.16,314.098,129.243,312.965,129.229,312.963z"/>
					<path d="M107.372,329.108c-2.32-0.777-7.087-0.42-7.098-0.412c-0.006,0.001,0.516,1.157,2.482,1.895
						c1.996,0.74,7.314,0.097,7.304,0.107C110.061,330.697,109.736,329.887,107.372,329.108z"/>
					<path d="M116.238,325.413c0.022,0,3.865-0.717,8.258-2.842c4.35-2.088,5.741-3.571,5.74-3.578
						c-0.013-0.013-6.796,2.309-9.705,3.633C117.552,323.947,116.23,325.417,116.238,325.413z"/>
					<path d="M154.578,311.084c-2.068-0.147-3.568,0.875-2.746,0.937c0.83,0.063,3.278-0.14,0.039,1.439
						c-2.796,1.385-7.337,3.132-13.937,5.544c2.104-1.091,4.065-2.902,4.859-6.302c-0.171,0.44-0.486,1.032-1.044,1.752
						c0.044-0.194,0.008-0.382-0.189-0.531c-0.698-0.547-4.289,0.267-6.26,1.187c-1.968,0.923,0.366,0.554,3.369-0.016
						c2.093-0.393,2.362-0.03,2.348,0.221c-1.23,1.326-3.198,2.965-6.408,4.906c-7.286,2.533-18.426,8.865-18.606,11.482
						c-0.11,0.035,3.96-4.837,11.713-8.208c7.292-3.316,19.562-7.631,23.429-9.254C154.877,312.602,156.64,311.241,154.578,311.084z
						"/>
					<path d="M152.913,313.478c-0.593,0.254-1.182,0.508-1.767,0.764c-0.003-0.001,2.593-0.707,4.323-0.884
						c1.74-0.188,5.625-0.663,5.105-1.343C160.064,311.313,152.889,313.461,152.913,313.478z"/>
					<path d="M152.68,310.359c1.481,0.027,4.003-0.773,4.009-0.772c-0.002,0.001-1.223-0.44-2.808-0.231
						C152.288,309.566,151.192,310.332,152.68,310.359z"/>
					<path d="M157.147,307.036c0.003-0.001-0.85,0.469-1.25,1.206c-0.389,0.738,2.772,0.783,2.762,0.787
						c-0.017,0.001,2.024-1.345,1.511-1.849C159.644,306.679,157.15,307.034,157.147,307.036z"/>
					<path d="M161.38,307.28c-1.636,0.728-0.311,0.935-0.316,0.935c0.003-0.001,1.33-0.236,2.053-0.799
						c0.725-0.561-0.085-0.859-0.087-0.859C163.033,306.558,163.019,306.557,161.38,307.28z"/>
					<path d="M140.91,312.603c0.014-0.006-4.597-0.058-5.526,0.865C134.484,314.375,140.905,312.589,140.91,312.603z"/>
					<path d="M136.716,311.898c-0.759,0.502,2.773,0.194,2.767,0.198C139.243,311.789,137.486,311.393,136.716,311.898z"/>
					<path d="M146.329,308.815c-0.03,0.006,2.192-1.803-0.338-0.915c-2.602,0.913-2.504,2.766-2.473,2.756
						c-0.016,0.004-0.03-1.186-1.827-1.448c-1.806-0.255-2.944,0.766-2.505,1.479c0.446,0.716,4.067,0.543,4.058,0.548
						c-0.05-0.007,6.378-2.662,7.357-3.402C151.505,307.085,146.312,308.809,146.329,308.815z"/>
					<path d="M142.52,315.087c-0.002,0,1.354-0.544,2.674-0.499c1.305,0.044,3.761-1.383,1.192-1.064
						C143.783,313.853,142.504,315.091,142.52,315.087z"/>
					<path d="M142.793,312.702c0.224-0.573,0.201-0.888,0.199-0.888C142.931,312.123,142.864,312.418,142.793,312.702z"/>
				</g>
				<path style="fill:#92E3A9;" d="M126.69,330.517c-0.008,0.001,0.889-1.11-0.006-1.325c-0.9-0.217-3.92,0.477-3.921,0.481
					c-0.038,0.014-1.178-1.93-4.113-1.943c-2.955,0-5.708,1.304-7.344,2.759c-1.651,1.471-2.209,2.169-2.217,2.169
					c0.005,0-2.406-0.156-3.428,0.911c-1.019,1.074-1.522,1.883-1.524,1.882c0.021-0.009-7.099,0.842-9.37,2.747
					c-2.289,1.923-2.538,3.64-2.534,3.635c-0.008,0.003,0.572,1.132,1.355,1.48c0.76,0.362,1.982,1.533,1.993,1.528
					c0.029-0.012-4.524,1.13-4.915,3.645c-0.373,2.569,0.857,4.677,4.493,3.529c3.596-1.162,11.041-4.51,11.068-4.488
					c-0.058,0.009-0.865,3.193,1.732,3.078c2.54-0.104,5.094-1.408,5.24-1.67c0.121-0.251,4.972,0.945,7.764,0.721
					c2.826-0.205,6.74-0.266,8.051-3.47c1.412-3.122-0.141-4.323-0.177-4.325c0.026-0.017,9.713-1.024,10.221-2.749
					c0.534-1.717-3.317-2.791-3.319-2.798c-0.033-0.017,5.344-2.744,5.166-3.403c-0.219-0.67-1.275-0.939-1.277-0.938
					c-0.009-0.003,2.119-1.336,1.417-1.749c-0.743-0.393-5.903-1.705-8.348-1.371C130.231,329.196,126.683,330.513,126.69,330.517z
					 M120.33,335.087c-1.127,0.995-1.612,1.409-2.909,2.165c-0.284,0.167-0.555,0.335-0.807,0.498
					c-0.079,0.074-0.159,0.148-0.237,0.223c0.635-0.186,1.27-0.37,1.904-0.552c-0.246,0.206-0.49,0.413-0.732,0.62
					c0.014-0.004,0.03-0.008,0.044-0.012c0.771-0.317,1.543-0.631,2.317-0.941c-0.226,0.176-0.451,0.353-0.674,0.529
					c3.123-0.691,7.529-0.552,7.531-0.556c-0.001,0.002-1.012,0.113-4.339,0.482c-1.546,0.172-2.833,0.565-3.766,0.94
					c-0.174,0.107-0.348,0.214-0.521,0.321c0.794-0.188,1.587-0.373,2.38-0.556c-0.639,0.265-1.276,0.533-1.913,0.803
					c0.572-0.019,1.144-0.039,1.716-0.058c-0.57,0.171-1.14,0.343-1.71,0.516c0.781,0.06,1.566,0.119,2.353,0.177
					c-0.809,0.161-1.619,0.325-2.429,0.491c0.468,0.086,0.952,0.213,1.433,0.361c0.061,0.008,0.121,0.017,0.182,0.026
					c-0.027,0.002-0.054,0.004-0.081,0.006c1.954,0.623,3.888,1.535,3.894,1.533c0,0-1.412-0.399-2.921-0.818
					c-0.808-0.223-2.076-0.417-3.071-0.551c-0.447,0.035-0.893,0.07-1.34,0.106c-0.007,0.002,0.311,0.961,0.474,1.252
					c0.045,0.035,0.07,0.062,0.066,0.078c-0.005,0.024-0.03-0.009-0.066-0.078c-0.325-0.247-1.652-0.93-1.648-0.933
					c-0.383,0.603-0.746,1.207-1.089,1.812c-0.015-0.382-0.019-0.765-0.013-1.149c-0.009-0.001-1.506,1.367-1.838,1.638
					c-0.342,0.27-0.004,0.001,0.186-0.522c0.082-0.224,0.277-0.522,0.476-0.788c-3.918,2.433-6.466,6.28-6.41,6.27
					c0.194-2.307,2.127-4.154,3.689-5.272c0.168-0.26,0.441-0.645,0.759-0.987c0.538-0.577,1.691-1.034,1.69-1.033
					c0,0-0.636,0.013-1.421,0.203c-0.787,0.189-2.584,0.934-2.583,0.935c0.001,0-0.002,0,0.583-0.453
					c0.585-0.454,2.982-1.066,2.981-1.064c-1.05,0.12-2.1,0.242-3.15,0.367c0.601-0.217,1.202-0.432,1.804-0.645
					c-0.069-0.016-0.139-0.033-0.208-0.049c-2.784,0.354-9.624,1.628-9.627,1.638c0.002-0.004,5.279-1.075,8.645-1.875
					c-0.112-0.027-0.225-0.055-0.337-0.082c0.26-0.009,0.52-0.017,0.779-0.026c0.583-0.144,1.089-0.278,1.479-0.398
					c-0.161-0.258-0.316-0.517-0.465-0.777c0.426,0.127,0.856,0.253,1.289,0.378c-0.307-0.426-0.261-3.244-0.14-3.941
					c-0.008-0.079-0.009-0.13-0.001-0.143c0.011-0.018,0.009,0.037,0.001,0.143c0.031,0.452,0.364,1.833,0.723,2.764
					c0.006-0.012,0.012-0.024,0.019-0.036c0.2,0.215,0.405,0.429,0.616,0.642c0.175-0.258,0.354-0.517,0.536-0.775
					c0.039,0.159,0.08,0.317,0.124,0.475c0.266-0.183,0.567-0.388,0.875-0.59c0.392-0.404,0.793-0.806,1.202-1.207
					c0.019,0.128,0.04,0.255,0.062,0.383c1.661-1.141,5.27-3.473,5.292-3.47C121.986,333.527,121.455,334.102,120.33,335.087z"/>
			</g>
			<g>
				<g style="opacity:0.46;">
					<path d="M407.002,392.735c-1.185,5.115-3.874,13.142-4.017,13.139c0.402-0.018,2.265-12.374,3.289-18.54
						c1.368-5.884,0.792-6.81,0.904-6.801c0.468-0.243,0.931-0.487,1.388-0.734C408.733,379.803,408.696,387.856,407.002,392.735z"
						/>
					<path d="M408.333,386.246c0.006,0.02,6.315-0.57,12.316,1.349c6.307,1.926,7.747,10.832,7.5,10.834
						c-0.014,0.027-9.136-0.889-14.032-4.084C409.39,391.227,408.404,386.249,408.333,386.246z"/>
					<path d="M406.819,394.736c-0.003-0.003,7.349,3.042,9.489,5.369c2.344,2.345,2.246,9.295,2.114,9.295
						c-0.032,0.009-10.108-3.329-11.069-6.805C406.464,399.205,406.86,394.74,406.819,394.736z"/>
					<path d="M406.56,411.094c-0.345,3.43-10.243,10.889-10.44,10.825c0.113-0.032-2.98-8.171-0.587-11.065
						c2.515-2.841,7.451-4.968,7.452-4.979C402.961,405.873,407.134,407.813,406.56,411.094z"/>
					<path d="M399.641,401.838c-3.211,2.385-13.075,5.81-13.129,5.763c-0.037-0.005,0.975-0.799,3.604-4.222
						c2.655-3.199,14.671-7.621,14.578-7.713C404.731,395.665,402.944,399.578,399.641,401.838z"/>
					<path d="M395.068,396.294c-5.2,1.265-17.57-1.78-17.542-1.786c0.096,0.026,6.192-3.915,10.954-3.872
						c4.828,0.138,17.005,0.903,17.009,0.869C405.543,391.521,400.216,395.111,395.068,396.294z"/>
					<path d="M407.178,380.533c0.051,0-1.936,4.041-6.507,5.852c-4.597,1.888-12.379,1.994-12.361,1.986
						c-0.007,0,1.582-1.586,2.864-3.831c1.287-2.171,5.662-4.319,5.65-4.335c-1.749-0.284-3.497-0.572-5.244-0.864
						c0.039,0.003,2.196-2.749,6.422-3.206c4.225-0.444,10.186,0.728,10.19,0.735C407.927,378.087,407.589,379.309,407.178,380.533z
						"/>
				</g>
				<g style="opacity:0.46;">
					<path d="M425.485,357.712c0.011-0.014,5.996,2.522,8.305,2.72c2.322,0.188,4.443-0.773,4.435-0.778
						c0.007-0.008-4.399-1.982-6.008-2.197c-1.602-0.223-5.56-0.323-5.561-0.325c0.004,0.008,5.132-0.62,5.622-1.729
						c0.507-1.077,1.26-2.367,1.256-2.369c0.001,0.001-3.61,0.084-4.684,0.411c-1.068,0.338-3.276,1.181-3.486,1.363
						c-0.216,0.19,1.811-1.6,1.378-4.317c-0.338-2.62-1.747-6.254-1.785-6.26c-0.014-0.005-1.17,0.31-2.303,1.898
						c-1.004,1.643,0.42,6.739,0.299,6.722c-1.159-0.98-2.345-1.946-3.556-2.897c0.041,0.007,0.811,2.822,0.945,3.159
						c0.188,0.347,0.671,1.32,0.667,1.32c0.004-0.002-1.999-1.232-3.484-1.217c-1.487,0.01-1.487,0.009-1.487,0.009
						c0.011,0.004,0.504,1.668,2.701,2.872C420.962,357.317,425.483,357.715,425.485,357.712z"/>
					<path d="M428.936,350.36c-0.005,0,4.417-0.194,5.272-1.42c1.004-1.168-0.721-6.135-0.844-6.158
						c-0.011-0.005-1.266,0.892-3.074,2.452C428.523,346.84,428.988,350.367,428.936,350.36z"/>
				</g>
				<g style="opacity:0.46;">
					<path d="M380.852,352.294c0.017,0.017-5.043,0.954-7.493,0.63c-2.432-0.31-5.319-1.398-5.322-1.394
						c0.009,0.009,3.631-0.697,5.243-0.614c1.619,0.092,5.911,0.688,5.911,0.69c-0.001-0.008-6.074-1.386-7.516-2.289
						c-1.429-0.915-3.497-1.982-3.499-1.98c-0.001-0.001,4.155,0.527,5.658,0.94c1.508,0.406,4.677,1.426,5.051,1.617
						c0.367,0.184-3.198-1.617-5.614-3.707c-2.336-2.075-5.854-4.734-5.873-4.729c-0.005,0.005,1.798,0.273,5.221,1.626
						c3.556,1.355,7.332,5.52,7.241,5.523c0.381-0.669,0.722-1.345,1.023-2.027c0.03-0.002,2.023,2.347,2.099,2.624
						c0.115,0.276,0.402,1.051,0.398,1.051c0.006,0.003,1.158-0.771,2.786-0.543c1.633,0.233,1.633,0.234,1.633,0.233
						c0.007-0.003,0.893,1.467-0.677,2.159C385.545,352.801,380.848,352.29,380.852,352.294z"/>
					<path d="M370.652,345.839c-0.003-0.001-5.214-0.646-7.628-1.593c-2.332-0.975-7.345-4.228-7.402-4.211
						c-0.003,0.004,2.847,0.609,7.126,1.846C367.094,343.115,370.688,345.837,370.652,345.839z"/>
				</g>
				<g>
					<path style="fill:#92E3A9;" d="M409.803,367.41c0.067,0.044,0.142,0.12,0.222,0.214
						C409.886,367.484,409.803,367.41,409.803,367.41z"/>
					<path style="fill:#92E3A9;" d="M410.619,350.527c4.872,1.797,6.715,3.834,7.848,4.401c1.154,0.573,3.475,1.391,3.475,1.393
						c-0.019,0,4.311,1.12,7.304,3.843c3.028,2.782,3.813,4.625,4.112,5.059c0.3,0.439,1.396,1.945,1.372,3.039
						c-0.001,1.101,0.799,3.21-3.225,3.39c0,0,0.615-0.021,1.399,0.033c1.268,0.087,2.999,0.375,3.289,1.313
						c0.486,1.55-3.72,3.156-4.746,4.419c-1.025,1.296-1.483,2.581-4.422,3.634c-2.934,1.075-5.471,3.935-9.9,3.169
						c-4.39-0.758-7.251-2.659-7.439-3.285c-0.177-0.63-1.122-1.136-1.121-1.136c0.018,0.016-4.034,1.54-7.226,0.324
						c-3.166-1.189-8.012-2.746-9.585-3.771c-1.511-1.042-5.619-4.828-5.977-6.298c-0.327-1.477-1.497-1.229-0.082-2.918
						c1.342-1.668,3.29-2.247,3.301-2.246c-0.004-0.021-5.304-2.73-4.622-4.909c0.655-2.163,2.251-2.999,2.269-2.998
						c-0.016-0.007-1.209-0.847-0.425-2.67c0.785-1.761,6.202-3.426,6.185-3.448c0.027,0.018,2.905-1.602,7.761-0.754
						c4.882,0.882,4.884,0.895,4.883,0.891C405.079,351.021,405.821,348.781,410.619,350.527z M406.102,355.995
						c0.615,1.653,0.881,2.346,2.058,3.704c0.257,0.3,0.488,0.601,0.693,0.889c0.034,0.124,0.068,0.249,0.1,0.373
						c-0.819-0.402-1.641-0.8-2.464-1.194c0.138,0.349,0.27,0.698,0.396,1.048c-0.019-0.009-0.04-0.018-0.059-0.026
						c-0.866-0.619-1.742-1.231-2.626-1.834c0.144,0.299,0.284,0.599,0.42,0.899c-4.299-1.631-11.842-2.311-11.839-2.32
						c-0.001,0.004,1.533,0.358,6.586,1.559c2.357,0.561,3.983,1.392,5.037,2.129c0.146,0.191,0.291,0.382,0.434,0.574
						c-1.078-0.44-2.157-0.874-3.238-1.302c0.709,0.514,1.411,1.033,2.106,1.558c-0.937-0.151-1.875-0.301-2.813-0.451
						c0.721,0.366,1.44,0.736,2.157,1.11c-1.405-0.084-2.812-0.17-4.223-0.26c1.134,0.407,2.267,0.819,3.4,1.237
						c-0.916,0.02-1.918,0.094-2.947,0.198c-0.115-0.001-0.23-0.003-0.346-0.004c0.042,0.009,0.085,0.018,0.127,0.027
						c-4.213,0.456-8.863,1.282-8.87,1.275c0,0,2.995-0.227,6.171-0.477c1.699-0.132,4.13-0.122,6.014-0.092
						c0.707,0.151,1.413,0.303,2.12,0.456c0.012,0.006-1.938,1.323-2.655,1.702c-0.13,0.04-0.212,0.074-0.23,0.097
						c-0.027,0.036,0.065-0.006,0.23-0.097c0.926-0.278,4.193-0.965,4.187-0.971c-0.228,0.967-0.508,1.932-0.841,2.896
						c0.606-0.553,1.188-1.112,1.746-1.676c0.024,0.001,0.536,2.36,0.683,2.839c0.173,0.48,0.009,0.002,0.476-0.813
						c0.198-0.348,0.311-0.832,0.367-1.272c3.191,4.545,1.251,10.992,1.128,10.952c3.555-3.51,3.049-6.792,2.048-8.832
						c0.104-0.426,0.212-1.062,0.17-1.643c-0.069-0.98-1.383-1.917-1.382-1.916c0,0,1.068,0.164,2.135,0.625
						c1.077,0.459,3.074,1.989,3.067,1.991c-0.002,0,0.005,0-0.339-0.814c-0.341-0.814-3.566-2.265-3.568-2.261
						c1.621,0.415,3.242,0.834,4.864,1.259c-0.72-0.461-1.443-0.917-2.17-1.368c0.142-0.009,0.284-0.018,0.426-0.027
						c4.272,1.143,14.264,4.662,14.25,4.685c0.005-0.009-7.583-2.874-12.239-4.818c0.23-0.016,0.461-0.032,0.69-0.048
						c-0.432-0.07-0.864-0.141-1.296-0.211c-0.793-0.343-1.469-0.654-1.967-0.917c0.632-0.346,1.251-0.696,1.858-1.05
						c-0.898,0.097-1.801,0.191-2.708,0.281c1.145-0.548,4.768-4.727,5.386-5.799c0.11-0.115,0.174-0.191,0.178-0.212
						c0.004-0.028-0.061,0.053-0.178,0.212c-0.605,0.668-2.917,2.649-4.775,3.939c0.006-0.019,0.011-0.038,0.016-0.057
						c-0.627,0.275-1.264,0.547-1.91,0.815c0.056-0.417,0.103-0.834,0.141-1.251c-0.279,0.225-0.562,0.449-0.85,0.671
						c-0.201-0.325-0.435-0.687-0.683-1.047c-0.121-0.671-0.264-1.34-0.428-2.007c-0.199,0.182-0.401,0.364-0.606,0.545
						c-1.26-1.993-4.37-6.034-4.426-6.03C405.289,353.445,405.476,354.367,406.102,355.995z"/>
				</g>
				<g style="opacity:0.46;">
					<path d="M388.907,319.676c6.558,4.688,11.759,9.494,15.619,14.339c-0.558-0.178-1.116-0.354-1.674-0.529
						c0.151,0.024-4.204-5.727-8.512-9.217C390.355,320.914,388.853,319.673,388.907,319.676z"/>
					<path d="M395.358,322.517c-0.586-1.365,2.088-2.428,2.09-2.431c0.116,0.016,3.631,4.149,3.276,5.386
						c-0.214,1.281-2.771,1.335-2.759,1.339C398.015,326.82,396.041,323.924,395.358,322.517z"/>
					<path d="M382.549,312.963c0.047,0.002,4.194,2.66,5.084,3.671c1.017,1.038,1.304,3.051,1.274,3.042
						c-0.012-0.002-2.311-1.51-5.323-3.567C380.618,314.098,382.535,312.965,382.549,312.963z"/>
					<path d="M404.406,329.108c2.32-0.777,7.087-0.42,7.098-0.412c0.006,0.001-0.516,1.157-2.482,1.895
						c-1.996,0.74-7.314,0.097-7.304,0.107C401.717,330.697,402.042,329.887,404.406,329.108z"/>
					<path d="M395.54,325.413c-0.022,0-3.865-0.717-8.258-2.842c-4.35-2.088-5.741-3.571-5.74-3.578
						c0.013-0.013,6.796,2.309,9.705,3.633C394.226,323.947,395.548,325.417,395.54,325.413z"/>
					<path d="M357.201,311.084c2.068-0.147,3.568,0.875,2.746,0.937c-0.831,0.063-3.278-0.14-0.039,1.439
						c2.796,1.385,7.337,3.132,13.937,5.544c-2.104-1.091-4.065-2.902-4.859-6.302c0.17,0.44,0.486,1.032,1.044,1.752
						c-0.044-0.194-0.008-0.382,0.189-0.531c0.698-0.547,4.289,0.267,6.26,1.187c1.968,0.923-0.366,0.554-3.369-0.016
						c-2.093-0.393-2.362-0.03-2.348,0.221c1.23,1.326,3.198,2.965,6.408,4.906c7.286,2.533,18.426,8.865,18.606,11.482
						c0.11,0.035-3.96-4.837-11.713-8.208c-7.292-3.316-19.562-7.631-23.43-9.254C356.901,312.602,355.138,311.241,357.201,311.084z
						"/>
					<path d="M358.865,313.478c0.593,0.254,1.182,0.508,1.767,0.764c0.003-0.001-2.593-0.707-4.323-0.884
						c-1.74-0.188-5.625-0.663-5.105-1.343C351.714,311.313,358.89,313.461,358.865,313.478z"/>
					<path d="M359.099,310.359c-1.481,0.027-4.003-0.773-4.009-0.772c0.002,0.001,1.223-0.44,2.808-0.231
						C359.49,309.566,360.587,310.332,359.099,310.359z"/>
					<path d="M354.632,307.036c-0.003-0.001,0.849,0.469,1.25,1.206c0.389,0.738-2.772,0.783-2.762,0.787
						c0.017,0.001-2.024-1.345-1.511-1.849C352.134,306.679,354.628,307.034,354.632,307.036z"/>
					<path d="M350.399,307.28c1.636,0.728,0.311,0.935,0.316,0.935c-0.003-0.001-1.33-0.236-2.053-0.799
						c-0.725-0.561,0.085-0.859,0.087-0.859C348.745,306.558,348.759,306.557,350.399,307.28z"/>
					<path d="M370.868,312.603c-0.014-0.006,4.597-0.058,5.526,0.865C377.294,314.375,370.873,312.589,370.868,312.603z"/>
					<path d="M375.063,311.898c0.759,0.502-2.773,0.194-2.767,0.198C372.535,311.789,374.292,311.393,375.063,311.898z"/>
					<path d="M365.449,308.815c0.03,0.006-2.192-1.803,0.338-0.915c2.602,0.913,2.504,2.766,2.473,2.756
						c0.016,0.004,0.03-1.186,1.827-1.448c1.806-0.255,2.943,0.766,2.505,1.479c-0.446,0.716-4.067,0.543-4.058,0.548
						c0.05-0.007-6.378-2.662-7.357-3.402C360.274,307.085,365.466,308.809,365.449,308.815z"/>
					<path d="M369.258,315.087c0.003,0-1.354-0.544-2.674-0.499c-1.305,0.044-3.76-1.383-1.192-1.064
						C367.995,313.853,369.274,315.091,369.258,315.087z"/>
					<path d="M368.985,312.702c-0.224-0.573-0.201-0.888-0.2-0.888C368.847,312.123,368.914,312.418,368.985,312.702z"/>
				</g>
				<path style="fill:#92E3A9;" d="M385.089,330.517c0.008,0.001-0.889-1.11,0.006-1.325c0.9-0.217,3.92,0.477,3.921,0.481
					c0.038,0.014,1.178-1.93,4.113-1.943c2.955,0,5.708,1.304,7.344,2.759c1.651,1.471,2.209,2.169,2.217,2.169
					c-0.005,0,2.406-0.156,3.428,0.911c1.019,1.074,1.522,1.883,1.524,1.882c-0.021-0.009,7.099,0.842,9.37,2.747
					c2.289,1.923,2.538,3.64,2.534,3.635c0.008,0.003-0.572,1.132-1.355,1.48c-0.76,0.362-1.982,1.533-1.992,1.528
					c-0.029-0.012,4.524,1.13,4.915,3.645c0.373,2.569-0.857,4.677-4.493,3.529c-3.596-1.162-11.041-4.51-11.068-4.488
					c0.058,0.009,0.865,3.193-1.733,3.078c-2.54-0.104-5.094-1.408-5.24-1.67c-0.121-0.251-4.972,0.945-7.764,0.721
					c-2.826-0.205-6.74-0.266-8.051-3.47c-1.412-3.122,0.141-4.323,0.177-4.325c-0.026-0.017-9.713-1.024-10.221-2.749
					c-0.534-1.717,3.317-2.791,3.319-2.798c0.033-0.017-5.344-2.744-5.166-3.403c0.219-0.67,1.275-0.939,1.277-0.938
					c0.009-0.003-2.119-1.336-1.417-1.749c0.743-0.393,5.903-1.705,8.348-1.371C381.547,329.196,385.095,330.513,385.089,330.517z
					 M391.448,335.087c1.127,0.995,1.612,1.409,2.909,2.165c0.285,0.167,0.555,0.335,0.807,0.498
					c0.079,0.074,0.159,0.148,0.237,0.223c-0.635-0.186-1.27-0.37-1.904-0.552c0.246,0.206,0.49,0.413,0.732,0.62
					c-0.014-0.004-0.03-0.008-0.044-0.012c-0.771-0.317-1.543-0.631-2.317-0.941c0.226,0.176,0.451,0.353,0.674,0.529
					c-3.123-0.691-7.529-0.552-7.531-0.556c0.001,0.002,1.012,0.113,4.339,0.482c1.546,0.172,2.833,0.565,3.767,0.94
					c0.174,0.107,0.348,0.214,0.521,0.321c-0.794-0.188-1.587-0.373-2.38-0.556c0.639,0.265,1.276,0.533,1.913,0.803
					c-0.572-0.019-1.144-0.039-1.716-0.058c0.57,0.171,1.14,0.343,1.71,0.516c-0.781,0.06-1.566,0.119-2.353,0.177
					c0.809,0.161,1.619,0.325,2.429,0.491c-0.468,0.086-0.952,0.213-1.433,0.361c-0.061,0.008-0.122,0.017-0.182,0.026
					c0.027,0.002,0.054,0.004,0.081,0.006c-1.955,0.623-3.889,1.535-3.894,1.533c0,0,1.412-0.399,2.921-0.818
					c0.808-0.223,2.076-0.417,3.071-0.551c0.447,0.035,0.893,0.07,1.34,0.106c0.007,0.002-0.311,0.961-0.474,1.252
					c-0.045,0.035-0.07,0.062-0.066,0.078c0.005,0.024,0.03-0.009,0.066-0.078c0.325-0.247,1.652-0.93,1.648-0.933
					c0.383,0.603,0.747,1.207,1.089,1.812c0.015-0.382,0.019-0.765,0.013-1.149c0.009-0.001,1.506,1.367,1.838,1.638
					c0.342,0.27,0.004,0.001-0.186-0.522c-0.082-0.224-0.277-0.522-0.476-0.788c3.918,2.433,6.466,6.28,6.41,6.27
					c-0.194-2.307-2.127-4.154-3.689-5.272c-0.168-0.26-0.441-0.645-0.759-0.987c-0.538-0.577-1.691-1.034-1.69-1.033
					c0,0,0.636,0.013,1.421,0.203c0.787,0.189,2.584,0.934,2.583,0.935c-0.001,0,0.002,0-0.583-0.453
					c-0.585-0.454-2.982-1.066-2.981-1.064c1.05,0.12,2.1,0.242,3.15,0.367c-0.601-0.217-1.202-0.432-1.804-0.645
					c0.07-0.016,0.139-0.033,0.208-0.049c2.784,0.354,9.624,1.628,9.627,1.638c-0.002-0.004-5.279-1.075-8.645-1.875
					c0.112-0.027,0.225-0.055,0.337-0.082c-0.26-0.009-0.52-0.017-0.78-0.026c-0.583-0.144-1.089-0.278-1.478-0.398
					c0.161-0.258,0.316-0.517,0.465-0.777c-0.426,0.127-0.856,0.253-1.289,0.378c0.307-0.426,0.262-3.244,0.14-3.941
					c0.008-0.079,0.009-0.13,0.001-0.143c-0.01-0.018-0.009,0.037-0.001,0.143c-0.031,0.452-0.364,1.833-0.723,2.764
					c-0.006-0.012-0.012-0.024-0.019-0.036c-0.2,0.215-0.405,0.429-0.616,0.642c-0.175-0.258-0.354-0.517-0.536-0.775
					c-0.039,0.159-0.08,0.317-0.124,0.475c-0.266-0.183-0.568-0.388-0.875-0.59c-0.392-0.404-0.793-0.806-1.202-1.207
					c-0.019,0.128-0.04,0.255-0.062,0.383c-1.661-1.141-5.27-3.473-5.292-3.47C389.792,333.527,390.323,334.102,391.448,335.087z"/>
			</g>
			<g>
				<g style="opacity:0.46;">
					<path d="M184.21,431.438c-7.148-1.877-16.949-5.368-16.938-5.388c-0.032,0.054,14.627,5.608,24.012,7.672
						c9.346,2.123,10.732,2.358,10.726,2.384c0.584,0.006,1.167,0.01,1.75,0.013C203.75,436.159,191.322,433.426,184.21,431.438z"/>
					<path d="M193.743,433.858c0.003,0.004,3.486-0.719,3.118-2.321c-0.386-1.553-10.918-4.827-10.901-4.87
						c0.005,0.002-2.643,1.453-0.754,3.283C187.093,431.799,193.739,433.873,193.743,433.858z"/>
					<path d="M181.57,430.618c0-0.001-0.592-2.054-2.344-3.224c-1.767-1.147-8.874-3.977-8.865-3.995
						c0.003-0.003-1.025,2.194,2.266,3.782C175.913,428.775,181.567,430.627,181.57,430.618z"/>
					<path d="M163.798,423.506c-3.316-1.371-13.285-4.352-13.277-4.387c-0.01,0.005,4.905,3.819,8.668,5.049
						c3.748,1.248,8.084,1.884,8.082,1.882C167.273,426.047,167.104,424.921,163.798,423.506z"/>
					<path d="M170.014,428.113c-3.986-0.786-11.962-2.036-11.963-2.055c0.002-0.006,1.176,0.388,5.9,1.909
						c4.731,1.567,15.525,2.51,15.519,2.474C179.467,430.445,173.997,428.941,170.014,428.113z"/>
					<path d="M174.294,431.029c-3.887-0.162-6.462,2.062-6.465,2.065c-0.004,0.025,8.334,1.684,10.595,1.177
						c2.267-0.465,6.746-2.139,6.741-2.145C185.164,432.139,178.186,431.213,174.294,431.029z"/>
					<path d="M202.01,436.106c-0.003,0.012-7.079-1.064-11.819-1.262c-4.739-0.174-8.684,0.522-8.687,0.523
						c0.001-0.001,3.051,0.616,7.074,1.45c4.025,0.847,9.532,1.052,9.529,1.046c-0.309,0.373-0.619,0.746-0.93,1.119
						c-0.002,0.01,5.807,0.782,8.393,0.186c2.584-0.584,2.892-2.056,2.893-2.054C206.31,436.795,204.158,436.459,202.01,436.106z"/>
				</g>
				<g style="opacity:0.46;">
					<path d="M248.862,435.478c-0.004,0.005-3.532-1.553-3.373-2.203c0.156-0.644,2.282-1.318,2.281-1.319
						c-0.002,0.003,2.733,1.108,2.858,1.551c0.123,0.447-0.431,1.589-0.431,1.589c0.002,0.001,2.151-1.549,4.259-1.851
						c2.113-0.299,4.612-0.773,4.612-0.774c0,0-0.657,1.125-1.451,1.507c-0.792,0.384-2.783,1.166-3.183,1.249
						c-0.398,0.081,3.454-0.711,8.596-1.18c5.149-0.449,12.106-1.256,12.105-1.266c-0.001-0.003-0.634,0.51-3.91,1.388
						c-3.272,0.921-13.346,1.531-13.348,1.497c1.767,0.192,3.537,0.372,5.31,0.54c0.001,0.011-5.576,0.301-6.242,0.285
						c-0.664-0.001-2.525-0.02-2.525-0.021c-0.001,0.002,2.122,0.434,1.854,0.875c-0.269,0.442-0.27,0.442-0.27,0.442
						c0.001,0.003-3.336,0.06-5.323-0.49C248.694,436.749,248.863,435.477,248.862,435.478z"/>
					<path d="M263.549,433.33c0-0.002,0.907-1.427,3.254-2.036c2.357-0.572,11.466-1.828,11.46-1.858
						c-0.001-0.002-1.656,0.802-4.764,1.958C270.395,432.571,263.55,433.345,263.549,433.33z"/>
				</g>
				<g style="opacity:0.46;">
					<path d="M250.937,447.745c0.004,0.005-3.728,1.364-3.614,2.014c0.117,0.657,2.303,1.452,2.304,1.45
						c0.002,0.003,2.915-0.976,3.056-1.421c0.144-0.441-0.386-1.604-0.386-1.604c-0.002,0,2.167,1.635,4.369,1.971
						c2.198,0.34,4.818,0.798,4.818,0.797c0,0-0.696-1.12-1.52-1.502c-0.826-0.38-2.879-1.184-3.288-1.277
						c-0.411-0.095,3.552,0.808,8.914,1.134c5.357,0.346,12.666,0.548,12.667,0.538c0.001-0.004-0.714-0.43-4.171-1.065
						c-3.461-0.59-13.855-0.982-13.853-1.017c1.822-0.194,3.642-0.399,5.458-0.618c-0.001,0.012-5.735-0.196-6.416-0.209
						c-0.682,0.002-2.592-0.005-2.592-0.006c0.001,0.002,2.184-0.407,1.91-0.852c-0.272-0.444-0.272-0.444-0.272-0.444
						c-0.001,0.003-3.397-0.098-5.445,0.369C250.828,446.473,250.936,447.743,250.937,447.745z"/>
					<path d="M266.153,450.007c0-0.002,0.987,1.407,3.489,1.905c2.494,0.537,12.228,0.975,12.232,0.943
						c0.001-0.002-1.845-0.599-5.202-1.487C273.312,450.502,266.152,450.022,266.153,450.007z"/>
				</g>
				<g>
					<path style="fill:#92E3A9;" d="M226.103,439.057c-0.063-0.023-0.181-0.053-0.333-0.088
						C225.991,439.025,226.103,439.057,226.103,439.057z"/>
					<path style="fill:#92E3A9;" d="M260.793,438.991c-3.094-1.137-6.873-1.442-7.816-1.722c-0.943-0.277-2.112-0.879-2.112-0.879
						c0.001-0.005-1.398-1.117-5.841-1.847c-4.442-0.738-7.478-1.025-8.179-1.115c-0.701-0.091-3.029-0.441-4.905-0.521
						c-1.878-0.074-5.136-0.491-6.633,0.431c0,0,0.219-0.142,0.359-0.336c0.228-0.314,0.25-0.759-1.189-0.951
						c-2.324-0.308-6.166,0.364-8.532,0.308c-2.364-0.053-4.473-0.251-7.128,0.042c-2.657,0.305-7.856-0.133-8.484,0.826
						c-0.629,0.969,1.13,2.085,2.062,2.325c0.929,0.241,1.366,0.567,1.366,0.567c0.002,0.006-4.126,0.144-3.543,1.078
						c0.586,0.938,1.117,2.293,2.245,2.933c1.12,0.649,6.455,2.75,9.326,3.288c2.865,0.542,1.873,0.703,5.995,0.929
						c4.123,0.21,6.093-0.108,6.093-0.104c-0.005-0.003,3.977,1.843,9.322,2.027c5.339,0.177,7.781-0.215,7.78-0.208
						c-0.001-0.005,1.682,0.408,6.292,0.232c4.617-0.173,9.7-1.884,9.694-1.887c0.004,0.007,4.333-1.049,3.125-2.363
						c-1.2-1.312-1.197-1.313-1.197-1.313C258.896,440.738,263.895,440.131,260.793,438.991z M248.238,440.866
						c-3.372-0.127-4.777-0.215-7.292-0.574c-0.551-0.079-1.108-0.154-1.644-0.223c-0.245-0.016-0.49-0.031-0.734-0.047
						c0.597,0.237,1.195,0.473,1.795,0.708c-0.688-0.053-1.376-0.107-2.063-0.163c0.013,0.005,0.025,0.011,0.038,0.017
						c1.039,0.266,2.081,0.527,3.124,0.785c-0.595-0.05-1.19-0.102-1.785-0.154c2.276,1.214,1.794,3.22,1.791,3.221
						c0.001,0-0.411-0.419-1.619-1.809c-0.562-0.647-1.863-1.122-3.092-1.454c-0.354-0.053-0.708-0.107-1.062-0.162
						c0.593,0.314,1.188,0.626,1.783,0.937c-0.883-0.223-1.765-0.45-2.646-0.679c0.032,0.25,0.064,0.5,0.096,0.75
						c-0.553-0.219-1.105-0.44-1.656-0.662c-0.259,0.355-0.518,0.711-0.778,1.065c-0.498-0.33-0.994-0.662-1.489-0.994
						c-0.333,0.217-0.81,0.446-1.366,0.672c-0.035,0.027-0.071,0.055-0.106,0.082c-0.005-0.012-0.009-0.023-0.014-0.034
						c-2.304,0.925-5.82,1.767-5.821,1.764c0,0,1.625-0.601,3.243-1.279c0.87-0.364,1.669-0.932,2.222-1.382
						c-0.075-0.191-0.151-0.382-0.226-0.573c0.001,0.004-3.268,0.234-4.285,0.31c-0.126,0.021-0.221,0.033-0.273,0.032
						c-0.081-0.001,0.035-0.013,0.273-0.032c0.892-0.147,3.334-0.785,3.333-0.787c-1.97-0.103-3.939-0.22-5.908-0.353
						c1.275-0.016,2.55-0.037,3.823-0.065c-0.001,0.007-4.331-0.564-5.164-0.715c-0.834-0.145,0,0.003,1.689,0.067
						c0.725,0.027,1.68,0.097,2.534,0.163c-7.455-1.411-19.044-2.982-19.044-3.014c7.274,0.476,12.739,1.265,16.146,1.895
						c0.82,0.063,2.034,0.159,3.104,0.269c1.814,0.187,3.187,0.633,3.187,0.633c0,0,0.021-0.277-0.516-0.599
						c-0.538-0.32-2.727-1.031-2.726-1.033c0,0,0,0.001,1.387,0.21c1.386,0.209,3.139,1.179,3.14,1.178
						c-0.295-0.446-0.589-0.892-0.882-1.339c0.636,0.235,1.274,0.469,1.912,0.701c0.06-0.034,0.119-0.067,0.178-0.101
						c-0.964-1.173-4.198-4.025-4.192-4.028c-0.002,0.001,2.707,2.198,5.036,3.549c0.097-0.055,0.194-0.111,0.291-0.166
						c0.007,0.114,0.014,0.229,0.021,0.344c0.419,0.233,0.817,0.434,1.178,0.584c0.85-0.123,1.7-0.249,2.548-0.378
						c-0.433,0.222-0.868,0.444-1.302,0.665c1.477-0.169,10.595-1.001,12.75-1.291c0.252-0.036,0.415-0.057,0.457-0.059
						c0.057-0.002-0.118,0.02-0.457,0.059c-1.427,0.209-5.851,0.868-8.938,1.269c0.039,0,0.077-0.001,0.116-0.001
						c-0.709,0.149-1.418,0.296-2.129,0.441c0.842,0.017,1.683,0.032,2.524,0.044c-0.523,0.061-1.046,0.121-1.569,0.18
						c0.593,0.074,1.257,0.157,1.915,0.24c1.326,0.067,2.652,0.127,3.978,0.18c-0.423,0.051-0.846,0.102-1.27,0.151
						c3.764,0.448,11.77,1.078,11.772,1.059C253.58,440.941,251.611,440.986,248.238,440.866z"/>
				</g>
				<g style="opacity:0.46;">
					<path d="M328.372,428.355c-10.615,2.55-21.342,4.655-32.154,6.307c0.418,0.077,0.836,0.154,1.255,0.23
						c0.009,0.042,12.808-2.272,20.504-4.004C325.687,429.211,328.369,428.34,328.372,428.355z"/>
					<path d="M321.222,429.034c2.836-1.056,4.099-2.907,4.098-2.905c0.01,0.026-8.532,2.661-11.028,3.733
						c-2.483,1.103-2.193,1.961-2.192,1.962C312.105,431.836,318.396,430.106,321.222,429.034z"/>
					<path d="M342.619,423.094c0.004,0.013-6.026,1.791-8.185,2.56c-2.148,0.794-6.058,2.706-6.061,2.701
						c-0.001-0.002,3.597-0.759,8.323-2.085C341.424,424.936,342.619,423.088,342.619,423.094z"/>
					<path d="M306.417,431.466c1.239-1.332-0.155-2.651-0.153-2.651c0,0.001-2.143,1.01-3.412,2.172
						c-1.271,1.164,0.633,2.478,0.635,2.477C303.488,433.464,305.176,432.798,306.417,431.466z"/>
					<path d="M315.41,431.471c-0.001-0.007,2.221,0.683,7.651,0.104c5.43-0.591,8.802-1.733,8.8-1.728
						c-0.002,0.013-6.557,0.314-9.882,0.563C318.653,430.683,315.411,431.471,315.41,431.471z"/>
					<path d="M356.424,427.126c-0.709-0.62-3.221,0.291-2.976,0.549c0.245,0.255,1.792,0.571-2.686,1.738
						c-3.865,0.992-9.251,1.945-16.474,2.616c2.893-0.541,7.611-1.946,14.018-5.674c-0.861,0.472-2.068,1.083-3.649,1.762
						c0.382-0.209,0.72-0.433,0.919-0.655c0.719-0.803-2.164-0.781-4.576-0.304c-2.413,0.474-0.928,0.72,1.271,0.881
						c1.531,0.108,0.959,0.581,0.466,0.859c-2.987,1.151-6.966,2.409-12.028,3.425c-7.459,0.639-22.843,2.243-28.697,3.738
						c0.011,0.021,11.104-1.947,19.916-2.681c8.823-0.616,22.128-2.091,27-3.212C353.803,429.104,357.137,427.744,356.424,427.126z"
						/>
					<path d="M351.191,429.671c-0.753,0.168-1.507,0.334-2.261,0.497c0,0.002,2.506-0.231,3.648-0.071
						c1.14,0.166,3.965,0.383,5.014-0.574C358.636,428.586,351.19,429.692,351.191,429.671z"/>
					<path d="M356.821,425.817c0.641,0.361,3.267-0.129,3.267-0.132c0,0,0.151-0.806-0.966-0.872
						C358.006,424.748,356.181,425.46,356.821,425.817z"/>
					<path d="M364.541,422.487c0,0-1.159,0.448-2.573,1.319c-1.416,0.87,0.056,1.56,0.057,1.56c0.002,0.004,3.315-1.356,3.835-2.117
						C366.383,422.493,364.541,422.488,364.541,422.487z"/>
					<path d="M366.33,423.601c-2.029,0.656-1.703,1.167-1.702,1.168c0,0,1.092-0.061,2.397-0.678
						c1.304-0.617,1.332-1.155,1.333-1.155C368.357,422.936,368.358,422.94,366.33,423.601z"/>
					<path d="M347.718,425.769c-0.002-0.001-1.73-1.234-3.702-0.431C342.036,426.146,347.715,425.78,347.718,425.769z"/>
					<path d="M347.274,423.871c-1.168,0.393,0.76,0.943,0.761,0.942C348.476,424.388,348.439,423.477,347.274,423.871z"/>
					<path d="M356.504,422.478c0.004,0.004,3.887-1.789,1.311-1.229c-2.567,0.561-5.613,2.843-5.617,2.842
						c0.002,0.002,1.99-1.46,1.618-2.212c-0.371-0.749-2.467,0.218-3.494,1.186c-1.028,0.97,0.763,1.66,0.764,1.659
						c0.003,0.021,7.364-1.758,8.978-2.542C361.683,421.429,356.504,422.487,356.504,422.478z"/>
					<path d="M343.756,429.029c0,0.001,1.57-0.27,2.019,0.106c0.45,0.383,4.207-0.693,2.51-0.938
						C346.594,427.957,343.758,429.031,343.756,429.029z"/>
					<path d="M348.307,426.355c1.126-0.619,1.663-1.001,1.663-1.001C349.404,425.706,348.85,426.039,348.307,426.355z"/>
				</g>
				<path style="fill:#92E3A9;" d="M306.044,438.649c0.001,0.003,2.726-0.509,3.067-0.949c0.341-0.436-1.701-0.877-1.7-0.878
					c0.005,0.006,4.132-1.798,3.605-2.741c-0.523-0.936-3.655-0.822-6.938-0.354c-3.284,0.468-4.829,0.705-4.828,0.707
					c0-0.001,0.104-0.879-2.211-0.561c-2.316,0.315-4.051,0.594-4.051,0.595c-0.003-0.003-2.114-1.85-5.977-1.653
					c-3.866,0.197-7.322,0.81-7.323,0.81c0.001,0.002-2.295,0.641-3.056,1.021c-0.758,0.385-3.258,1.179-3.259,1.177
					c-0.003-0.006-1.982-1.035-7.017-0.497c-5.039,0.534-9.525,1.192-7.772,2.111c1.747,0.931,8.05,2.497,8.057,2.483
					c0.001,0.018-6.875,0.398-7.074,1.117c-0.198,0.74,2.374,1.294,2.968,1.285c0.597-0.002-2.958,1.626-2.962,2.402
					c0.002,0.763-0.599,1.998,7.397,1.784c7.995-0.267,11.146-1.264,11.145-1.249c-0.005-0.005,2.131,2.651,6.933,2.084
					c4.796-0.577,7.462-2.345,7.46-2.341c-0.004,0.02,7.649,0.14,9.412-0.382c1.76-0.496,2.305-0.999,2.306-0.998
					c0,0.005,3.796-0.269,4.739-0.788c0.949-0.511,3.222-3.045,1.953-3.533C309.649,438.819,306.043,438.653,306.044,438.649z
					 M294.715,439.507c-2.382,0.193-3.377,0.251-5.176,0.218c-0.394-0.008-0.792-0.012-1.174-0.013
					c-0.173,0.011-0.347,0.021-0.52,0.031c0.441,0.114,0.882,0.227,1.323,0.34c-0.488,0.023-0.976,0.045-1.463,0.067
					c0.009,0.003,0.019,0.006,0.028,0.008c0.753,0.095,1.508,0.187,2.262,0.278c-0.422,0.016-0.844,0.032-1.267,0.047
					c1.704,0.654,1.538,2.105,1.537,2.105c0.001,0-0.323-0.259-1.292-1.129c-0.451-0.405-1.405-0.624-2.297-0.748
					c-0.253-0.006-0.506-0.012-0.76-0.019c0.444,0.167,0.889,0.333,1.335,0.499c-0.639-0.078-1.278-0.158-1.917-0.24
					c0.045,0.173,0.09,0.345,0.135,0.517c-0.407-0.104-0.814-0.209-1.221-0.315c-0.149,0.273-0.298,0.546-0.448,0.818
					c-0.379-0.186-0.757-0.373-1.135-0.561c-0.214,0.183-0.526,0.387-0.895,0.598c-0.022,0.023-0.044,0.045-0.067,0.068
					c-0.004-0.008-0.009-0.015-0.013-0.023c-1.528,0.861-3.904,1.787-3.904,1.785c0,0,1.078-0.577,2.146-1.204
					c0.575-0.337,1.081-0.81,1.426-1.177c-0.071-0.127-0.141-0.254-0.212-0.381c0.001,0.002-2.268,0.469-2.972,0.621
					c-0.086,0.027-0.151,0.044-0.188,0.048c-0.056,0.007,0.023-0.012,0.188-0.048c0.61-0.189,2.261-0.866,2.26-0.866
					c-1.39,0.112-2.781,0.217-4.172,0.315c0.891-0.134,1.782-0.271,2.672-0.411c0,0.003-3.088,0.018-3.686-0.005
					c-0.598-0.02,0,0.001,1.19-0.117c0.511-0.051,1.186-0.094,1.791-0.129c-5.361-0.292-13.629-0.185-13.631-0.201
					c5.134-0.433,9.044-0.416,11.493-0.305c0.581-0.035,1.441-0.085,2.202-0.11c1.29-0.042,2.295,0.143,2.296,0.143
					c0,0-0.011-0.197-0.418-0.372c-0.408-0.174-2.011-0.465-2.011-0.466c0,0,0,0.001,0.993,0.016
					c0.993,0.015,2.314,0.532,2.315,0.532c-0.249-0.285-0.497-0.571-0.744-0.857c0.469,0.105,0.939,0.21,1.408,0.314
					c0.039-0.029,0.077-0.058,0.116-0.087c-0.784-0.735-3.327-2.43-3.324-2.432c-0.001,0,2.113,1.285,3.874,2.019
					c0.063-0.048,0.126-0.095,0.189-0.143c0.015,0.08,0.031,0.159,0.046,0.239c0.315,0.125,0.614,0.229,0.881,0.302
					c0.586-0.164,1.172-0.329,1.757-0.496c-0.285,0.195-0.57,0.39-0.855,0.584c1.02-0.259,7.364-1.641,8.862-2.018
					c0.174-0.046,0.288-0.075,0.317-0.08c0.04-0.006-0.082,0.024-0.317,0.08c-0.989,0.266-4.05,1.105-6.184,1.662
					c0.027-0.004,0.054-0.007,0.082-0.011c-0.485,0.167-0.971,0.333-1.457,0.499c0.593-0.063,1.186-0.127,1.778-0.193
					c-0.362,0.089-0.725,0.177-1.087,0.265c0.424-0.001,0.897-0.001,1.367-0.001c0.938-0.07,1.875-0.143,2.812-0.22
					c-0.293,0.072-0.586,0.144-0.88,0.216c2.685-0.017,8.37-0.23,8.371-0.24C298.479,439.123,297.097,439.311,294.715,439.507z"/>
			</g>
			<ellipse style="fill:#FFFFFF;stroke:#263238;stroke-miterlimit:10;" cx="255.863" cy="392.506" rx="69.695" ry="33.983"/>
		</g>
	</g>
	<g>
		<ellipse style="opacity:0.08;" cx="255.044" cy="396.549" rx="90.366" ry="39.29"/>
		<ellipse style="fill:#FFFFFF;stroke:#263238;stroke-miterlimit:10;" cx="256.07" cy="389.318" rx="63.17" ry="34.226"/>
		<ellipse style="opacity:0.08;" cx="256.07" cy="389.318" rx="63.17" ry="34.226"/>
		<ellipse style="fill:none;stroke:#263238;stroke-miterlimit:10;" cx="256.07" cy="389.318" rx="63.17" ry="34.226"/>
		<path style="fill:#FFFFFF;stroke:#263238;stroke-miterlimit:10;" d="M256.07,242.274c-61.809,0-113.394-13.659-125.474-31.833
			c8.595,18.135,12.954,39.042,15.476,58.741c1.243,9.708,1.91,19.491,1.99,29.278c0.086,10.355-2.547,21.226,2.889,30.602
			c4.997,8.619,12.365,16.563,18.852,24.125c3.772,4.398,7.64,8.712,11.592,12.948c2.236,2.396,4.498,4.766,6.787,7.111
			c1.107,1.134,5.492,6.952,6.931,6.949c0,0,0.025,0,0.034,0c11.807,12.383,34.661,20.779,60.924,20.779
			c26.589,0,49.678-8.606,61.353-21.241c0.939-0.516,2.376-2.118,2.851-2.523c3.292-2.802,6.416-5.804,9.445-8.885
			c11.012-11.202,21.064-23.672,29.731-36.771c7.026-10.619,5.363-23.483,6.08-35.74c0.884-15.11,2.34-30.219,4.845-45.152
			c2.282-13.603,5.198-27.738,11.213-40.285C369.587,228.583,317.951,242.274,256.07,242.274z"/>
		<path style="opacity:0.08;" d="M360.844,329.184c0.239-0.449,0.465-0.902,0.678-1.358c0.089-0.19,0.181-0.379,0.265-0.57
			c0.269-0.609,0.523-1.222,0.751-1.842c0.044-0.121,0.081-0.243,0.124-0.365c0.181-0.512,0.35-1.027,0.506-1.545
			c0.075-0.248,0.144-0.497,0.213-0.746c0.114-0.409,0.22-0.821,0.32-1.234c0.061-0.254,0.126-0.508,0.182-0.764
			c0.133-0.602,0.255-1.206,0.363-1.814c-27.777,14.644-41.06,26.548-106.916,25.605c-59.397-0.85-78.377-8.799-109.664-26.633
			c0,0,0,0,0,0.001c0.011,0.132,0.029,0.263,0.042,0.395c0.043,0.44,0.092,0.879,0.151,1.316c0.028,0.206,0.06,0.411,0.092,0.617
			c0.059,0.383,0.126,0.766,0.2,1.146c0.037,0.192,0.072,0.385,0.114,0.577c0.118,0.552,0.249,1.101,0.402,1.647
			c0.016,0.058,0.037,0.115,0.054,0.173c0.144,0.497,0.305,0.991,0.482,1.482c0.061,0.171,0.129,0.341,0.194,0.511
			c0.153,0.397,0.318,0.791,0.494,1.184c0.074,0.164,0.145,0.329,0.224,0.492c0.257,0.538,0.53,1.073,0.837,1.602
			c4.997,8.619,12.365,16.563,18.852,24.125c3.772,4.397,7.64,8.712,11.592,12.948c2.235,2.396,4.498,4.766,6.787,7.111
			c1.107,1.134,5.492,6.952,6.931,6.949c0,0,0.025,0,0.034,0c11.807,12.383,34.661,20.779,60.924,20.779
			c26.589,0,49.678-8.606,61.353-21.242c0.939-0.516,2.376-2.118,2.851-2.523c3.292-2.802,6.416-5.804,9.445-8.885
			c11.012-11.202,21.064-23.672,29.731-36.771c0.395-0.597,0.753-1.203,1.095-1.813C360.649,329.556,360.746,329.37,360.844,329.184
			z"/>
		<path style="fill:none;stroke:#263238;stroke-miterlimit:10;" d="M256.07,242.274c-61.809,0-113.394-13.659-125.474-31.833
			c8.595,18.135,12.954,39.042,15.476,58.741c1.243,9.708,1.91,19.491,1.99,29.278c0.086,10.355-2.547,21.226,2.889,30.602
			c4.997,8.619,12.365,16.563,18.852,24.125c3.772,4.398,7.64,8.712,11.592,12.948c2.236,2.396,4.498,4.766,6.787,7.111
			c1.107,1.134,5.492,6.952,6.931,6.949c0,0,0.025,0,0.034,0c11.807,12.383,34.661,20.779,60.924,20.779
			c26.589,0,49.678-8.606,61.353-21.241c0.939-0.516,2.376-2.118,2.851-2.523c3.292-2.802,6.416-5.804,9.445-8.885
			c11.012-11.202,21.064-23.672,29.731-36.771c7.026-10.619,5.363-23.483,6.08-35.74c0.884-15.11,2.34-30.219,4.845-45.152
			c2.282-13.603,5.198-27.738,11.213-40.285C369.587,228.583,317.951,242.274,256.07,242.274z"/>
		<path style="fill:#FFFFFF;stroke:#263238;stroke-miterlimit:10;" d="M419.042,205.661c-17.048-1.509-35.97,11.642-42.056,16.278
			c-2.522,7.644-4.269,15.601-5.696,23.476c14.099-15.365,35.071-26.231,45.608-26.653c11.91-0.476,18.103,16.198,6.908,35.492
			c-11.195,19.294-37.874,31.204-50.499,34.539c-3.85,1.017-6.1,1.212-7.395,1.043c-0.138,1.992-0.266,3.985-0.382,5.978
			c-0.343,5.866-0.148,11.869-0.615,17.701c3.243-1.24,10.428-4.156,22.684-9.953c17.367-8.214,52.896-31.921,58.835-53.357
			C451.913,230.434,445.958,208.043,419.042,205.661z"/>
		<ellipse style="fill:#92E3A9;stroke:#263238;stroke-miterlimit:10;" cx="256.07" cy="202.273" rx="128.152" ry="40.001"/>
		<ellipse style="fill:#F0F0F0;stroke:#263238;stroke-miterlimit:10;" cx="256.07" cy="200.104" rx="123.613" ry="36.899"/>
		<path style="fill:#263238;stroke:#263238;stroke-miterlimit:10;" d="M146.84,217.389c20.764,11.668,61.885,19.614,109.23,19.614
			c47.345,0,88.466-7.947,109.23-19.614c-20.764-11.668-61.885-19.614-109.23-19.614
			C208.725,197.775,167.604,205.721,146.84,217.389z"/>
		<g>
			<g style="opacity:0.46;">
				<path d="M182.956,283.673c-7.098-2.302-17.072-7.289-17.072-7.289s14.962,9.208,24.17,11.509
					c9.208,2.302,10.55,2.877,10.55,2.877l1.669-1.031C202.272,289.74,190.053,285.975,182.956,283.673z"/>
				<path d="M192.409,286.665c0,0,3.204-5.577,2.611-12.222c-0.593-6.645-11.272-12.696-11.272-12.696s-2.255,8.425-0.119,14.713
					C185.764,282.75,192.409,286.665,192.409,286.665z"/>
				<path d="M180.306,282.394c0,0-0.949-8.306-2.848-11.747c-1.898-3.441-9.255-8.662-9.255-8.662s-0.475,10.323,2.966,13.883
					C174.61,279.427,180.306,282.394,180.306,282.394z"/>
				<path d="M162.033,269.223c-3.441-2.492-13.527-3.322-13.527-3.322s5.577,10.086,9.374,11.154s8.004-0.67,8.004-0.67
					S165.474,271.715,162.033,269.223z"/>
				<path d="M168.915,282.394c-3.916,0.475-11.628,3.916-11.628,3.916s1.187,0.237,5.933,1.661
					c4.746,1.424,15.069-4.509,15.069-4.509S172.83,281.919,168.915,282.394z"/>
				<path d="M173.542,290.7c-3.678,2.966-5.577,15.069-5.577,15.069s8.069-0.949,10.086-4.984
					c2.017-4.034,5.933-14.951,5.933-14.951S177.221,287.733,173.542,290.7z"/>
				<path d="M200.604,290.771c0,0-6.89-0.071-11.399,2.777c-4.509,2.848-8.069,9.255-8.069,9.255s2.966,0,6.882,0.475
					c3.916,0.475,9.137-2.373,9.137-2.373l-0.712,5.458c0,0,5.577-0.475,7.95-4.509c2.373-4.034,2.492-10.56,2.492-10.56
					L200.604,290.771z"/>
			</g>
			<g style="opacity:0.46;">
				<path d="M245.804,270.56c0,0-3.492-6.337-3.362-9.182c0.129-2.845,2.199-6.078,2.199-6.078s2.716,4.526,2.845,6.466
					c0.129,1.94-0.388,6.983-0.388,6.983s2.069-6.983,4.138-8.406c2.069-1.423,4.526-3.492,4.526-3.492s-0.647,4.914-1.423,6.595
					c-0.776,1.681-2.716,5.173-3.104,5.561c-0.388,0.388,3.362-3.362,8.406-5.173c5.044-1.811,11.898-4.138,11.898-4.138
					s-0.647,2.069-3.88,5.432c-3.233,3.362-13.061,5.69-13.061,5.69l5.173,2.457c0,0-5.432,1.164-6.078,1.164
					c-0.647,0-2.457,0-2.457,0s2.069,1.81,1.811,3.75c-0.259,1.94-0.259,1.94-0.259,1.94s-3.233,0.388-5.173-1.81
					C245.674,276.121,245.804,270.56,245.804,270.56z"/>
				<path d="M260.158,260.731c0,0,0.905-6.207,3.233-8.665c2.328-2.457,11.38-6.337,11.38-6.337s-1.681,3.104-4.785,7.63
					C266.883,257.886,260.158,260.731,260.158,260.731z"/>
			</g>
			<g style="opacity:0.46;">
				<path d="M248.064,323.957c0,0-3.492,6.337-3.362,9.182c0.129,2.845,2.199,6.078,2.199,6.078s2.716-4.526,2.845-6.466
					c0.129-1.94-0.388-6.983-0.388-6.983s2.069,6.983,4.138,8.406c2.069,1.423,4.526,3.492,4.526,3.492s-0.647-4.914-1.423-6.595
					c-0.776-1.681-2.716-5.173-3.104-5.561c-0.388-0.388,3.362,3.362,8.406,5.173c5.044,1.811,11.898,4.138,11.898,4.138
					s-0.647-2.069-3.88-5.431c-3.233-3.362-13.061-5.69-13.061-5.69l5.173-2.457c0,0-5.432-1.164-6.078-1.164s-2.457,0-2.457,0
					s2.069-1.81,1.811-3.75c-0.259-1.94-0.259-1.94-0.259-1.94s-3.233-0.388-5.173,1.81
					C247.935,318.396,248.064,323.957,248.064,323.957z"/>
				<path d="M262.419,333.785c0,0,0.905,6.208,3.233,8.665s11.38,6.337,11.38,6.337s-1.681-3.104-4.785-7.63
					C269.143,336.63,262.419,333.785,262.419,333.785z"/>
			</g>
			<g>
				<path style="fill:#92E3A9;" d="M223.965,291.605c-0.062-0.077-0.178-0.166-0.327-0.261
					C223.854,291.507,223.965,291.605,223.965,291.605z"/>
				<path style="fill:#92E3A9;" d="M257.427,285.373c-2.988-5.056-6.665-6.205-7.584-7.354c-0.919-1.149-2.068-3.677-2.068-3.677
					s-1.379-4.826-5.745-7.354c-4.366-2.528-7.354-2.988-8.043-3.217c-0.689-0.23-2.988-1.149-4.826-0.919
					c-1.839,0.23-5.056-0.46-6.435,4.137c0,0,0.201-0.702,0.321-1.596c0.196-1.45,0.181-3.405-1.24-3.689
					c-2.298-0.46-5.975,4.137-8.273,5.056c-2.298,0.919-4.367,1.149-6.894,3.907c-2.528,2.758-7.584,4.137-8.043,8.733
					c-0.46,4.596,1.379,8.273,2.298,8.733c0.919,0.46,1.379,1.609,1.379,1.609s-3.907,3.217-3.217,6.894
					c0.689,3.677,1.379,9.193,2.528,11.261c1.149,2.068,6.435,8.044,9.193,8.963c2.758,0.919,1.839,2.068,5.745,1.149
					c3.907-0.919,5.745-2.988,5.745-2.988s3.907,6.435,8.963,5.745c5.056-0.689,7.354-2.758,7.354-2.758s1.609,1.379,5.975,0
					s9.192-8.963,9.192-8.963s4.137-4.596,2.988-10.342c-1.149-5.745-1.149-5.745-1.149-5.745S260.415,290.429,257.427,285.373z
					 M245.337,294.175c-3.246-0.135-4.599-0.27-7.034-1.353c-0.534-0.237-1.073-0.447-1.591-0.632l-0.709-0.044l1.758,2.705
					l-1.989-0.265c0.012,0.021,0.025,0.044,0.037,0.065l3.034,2.77l-1.718-0.313c2.238,4.831,1.854,13.704,1.854,13.704
					s-0.406-1.758-1.623-7.575c-0.567-2.707-1.835-4.497-3.031-5.647l-1.027-0.44l1.758,3.652l-2.57-2.299l0.135,3.246l-1.623-2.435
					l-0.676,4.87l-1.487-3.889c-0.304,1.049-0.743,2.194-1.258,3.361l-0.095,0.393l-0.016-0.146
					c-2.134,4.756-5.395,9.749-5.395,9.749s1.488-3.246,2.976-6.763c0.8-1.891,1.52-4.636,2.016-6.776l-0.258-2.422
					c0,0-3.107,2.131-4.071,2.867c-0.118,0.139-0.208,0.227-0.258,0.244c-0.077,0.026,0.032-0.071,0.258-0.244
					c0.838-0.989,3.124-4.626,3.124-4.626l-5.681,0.676l3.652-1.758c0,0-4.193-0.812-5.005-1.082s0,0,1.623-0.406
					c0.697-0.174,1.617-0.248,2.442-0.277c-7.263-3.606-18.538-3.917-18.538-3.917c7.006-2.208,12.339-1.159,15.663,0.181
					c0.792-0.064,1.967-0.125,3.004-0.045c1.758,0.135,3.111,1.623,3.111,1.623s0-1.217-0.541-2.435
					c-0.541-1.217-2.705-3.517-2.705-3.517s0,0,1.353,0.406c1.353,0.406,3.111,4.058,3.111,4.058l-0.947-5.546l1.894,2.435
					l0.165-0.495c-1.003-4.839-4.358-16.143-4.358-16.143s2.805,8.596,5.141,13.796l0.27-0.81l0.043,1.492
					c0.419,0.893,0.817,1.65,1.174,2.203l2.436-2.342l-1.217,3.246c1.403-1.286,10.182-6.816,12.273-8.203
					c0.243-0.19,0.401-0.305,0.442-0.318c0.055-0.018-0.114,0.101-0.442,0.318c-1.38,1.075-5.643,4.658-8.598,7.153l0.112-0.032
					l-2.029,2.435l2.435-0.406l-1.503,1.149c0.575,0.181,1.218,0.389,1.857,0.609h3.839l-1.217,0.892
					c3.646,1.114,11.362,3.165,11.362,3.165S248.583,294.31,245.337,294.175z"/>
			</g>
			<g style="opacity:0.46;">
				<path d="M323.819,266.246l-31.854,8.006l1.192,1.533c0,0,12.605-4.088,20.271-6.132
					C321.094,267.609,323.819,266.246,323.819,266.246z"/>
				<path d="M316.835,263.862c2.896-2.555,4.429-9.539,4.429-9.539s-8.688,5.281-11.243,8.517c-2.555,3.237-2.385,7.155-2.385,7.155
					S313.939,266.417,316.835,263.862z"/>
				<path d="M338.469,256.026c0,0-6.132,2.044-8.347,3.577c-2.215,1.533-6.303,6.643-6.303,6.643s3.577-0.511,8.347-2.044
					C336.936,262.669,338.469,256.026,338.469,256.026z"/>
				<path d="M302.186,265.224c1.363-5.11,0.17-11.583,0.17-11.583s-2.214,3.237-3.577,7.665c-1.363,4.429,0.341,11.072,0.341,11.072
					S300.823,270.335,302.186,265.224z"/>
				<path d="M310.873,270.505c0,0,2.044,4.259,7.325,5.621c5.281,1.363,8.688-0.681,8.688-0.681s-6.303-3.918-9.539-5.11
					C314.11,269.142,310.873,270.505,310.873,270.505z"/>
				<path d="M350.563,287.199c-0.511-3.407-3.066-2.215-2.896-0.852c0.17,1.363,1.533,4.259-2.896,4.599
					c-3.822,0.294-9.043-0.939-15.983-4.127c2.838,0.124,7.521-1.886,14.365-11.357c-0.914,1.149-2.183,2.551-3.815,3.933
					c0.404-0.525,0.77-1.156,1.004-1.906c0.852-2.726-1.874-5.451-4.259-5.621c-2.385-0.17-1.022,2.214,1.022,4.94
					c1.422,1.897,0.783,3.379,0.262,4.106c-3.052,2.125-7.045,3.922-12.016,4.241c-7.158-3.649-22.145-6.303-27.936-2.214
					c0,0,10.902-3.066,19.419,0.17c8.517,3.237,21.293,8.858,26.063,9.199C347.667,292.65,351.074,290.605,350.563,287.199z"/>
				<path d="M345.112,292.479l-2.214-0.17c0,0,2.385,1.533,3.407,3.407c1.022,1.874,3.577,5.792,4.77,2.896
					C352.267,295.716,345.112,292.479,345.112,292.479z"/>
				<path d="M351.245,282.088c0.511,2.215,3.066,3.066,3.066,3.066s0.341-3.236-0.681-4.77
					C352.607,278.852,350.734,279.874,351.245,282.088z"/>
				<path d="M359.251,276.808c0,0-1.192,0.511-2.725,2.555c-1.533,2.044-0.341,6.643-0.341,6.643s3.407-1.874,4.088-4.429
					C360.954,279.022,359.251,276.808,359.251,276.808z"/>
				<path d="M360.614,283.621c-2.044,0.341-1.874,2.896-1.874,2.896s1.022,1.022,2.385,0c1.363-1.022,1.533-3.237,1.533-3.237
					S362.658,283.281,360.614,283.621z"/>
				<path d="M342.727,272.379c0,0-1.363-6.984-3.407-5.451C337.276,268.461,342.727,272.379,342.727,272.379z"/>
				<path d="M342.727,263.862c-1.192,0.511,0.511,4.77,0.511,4.77C343.75,267.268,343.92,263.35,342.727,263.862z"/>
				<path d="M351.756,267.609c0,0,4.088-3.237,1.533-3.747c-2.555-0.511-5.962,5.962-5.962,5.962s2.215-4.088,2.044-7.665
					c-0.17-3.577-2.385-1.703-3.577,1.363c-1.192,3.066,0.341,7.836,0.341,7.836s7.325,0.341,9.028-1.022
					C356.866,268.972,351.756,267.609,351.756,267.609z"/>
				<path d="M338.299,282.429c0,0,1.533,0.341,1.874,2.385c0.341,2.044,4.088,1.192,2.555-1.533
					C341.194,280.555,338.299,282.429,338.299,282.429z"/>
				<path d="M343.153,275.463c1.197-1.505,1.789-2.573,1.789-2.573C344.33,273.804,343.734,274.659,343.153,275.463z"/>
			</g>
			<path style="fill:#92E3A9;" d="M300.987,296.193c0,0,2.655-0.759,3.034-2.465c0.379-1.707-1.517-4.741-1.517-4.741
				s4.172-5.499,3.792-9.86c-0.379-4.361-3.413-5.689-6.637-5.309c-3.224,0.379-4.741,0.758-4.741,0.758s0.19-3.792-2.086-3.413
				c-2.275,0.379-3.982,0.948-3.982,0.948s-1.896-8.912-5.689-9.291c-3.792-0.379-7.206,1.517-7.206,1.517s-2.276,2.275-3.034,3.792
				c-0.758,1.517-3.224,4.551-3.224,4.551s-1.896-4.93-6.826-3.034c-4.93,1.896-9.291,4.93-7.585,8.912
				c1.707,3.982,7.775,11.188,7.775,11.188s-6.637,1.327-6.826,4.551c-0.19,3.224,2.275,5.689,2.844,5.689
				c0.569,0-2.844,7.016-2.844,10.429c0,3.413-0.569,8.533,7.016,8.154c7.585-0.379,10.619-3.792,10.619-3.792
				s1.896,11.946,6.447,10.808c4.551-1.138,7.206-7.774,7.206-7.774s7.206,3.603,8.912,2.275s2.275-3.224,2.275-3.224
				s3.603,0.759,4.551-0.948c0.948-1.707,3.413-11.377,2.276-14.221C304.4,298.848,300.987,296.193,300.987,296.193z
				 M290.082,294.724c-2.296-0.096-3.253-0.191-4.976-0.957c-0.378-0.168-0.759-0.316-1.125-0.447l-0.501-0.031l1.244,1.914
				l-1.407-0.188c0.009,0.015,0.018,0.031,0.026,0.046l2.146,1.96l-1.216-0.221c1.583,3.418,1.311,9.694,1.311,9.694
				s-0.287-1.244-1.148-5.359c-0.401-1.915-1.298-3.181-2.144-3.995l-0.726-0.311l1.244,2.584l-1.818-1.627l0.096,2.296
				l-1.148-1.722l-0.478,3.445l-1.052-2.751c-0.215,0.742-0.526,1.552-0.89,2.378l-0.067,0.278l-0.011-0.103
				c-1.509,3.364-3.816,6.897-3.816,6.897s1.053-2.297,2.105-4.784c0.566-1.338,1.075-3.28,1.426-4.794l-0.182-1.713
				c0,0-2.198,1.507-2.88,2.029c-0.083,0.098-0.147,0.161-0.182,0.172c-0.055,0.018,0.023-0.05,0.182-0.172
				c0.592-0.699,2.21-3.272,2.21-3.272l-4.019,0.479l2.584-1.244c0,0-2.966-0.574-3.54-0.766c-0.574-0.191,0,0,1.148-0.287
				c0.493-0.123,1.144-0.176,1.727-0.196c-5.138-2.551-13.114-2.771-13.114-2.771c4.956-1.562,8.729-0.82,11.08,0.128
				c0.56-0.045,1.391-0.089,2.125-0.032c1.244,0.096,2.201,1.148,2.201,1.148s0-0.861-0.383-1.722
				c-0.383-0.861-1.914-2.488-1.914-2.488s0,0,0.957,0.287c0.957,0.287,2.201,2.871,2.201,2.871l-0.67-3.923l1.34,1.722l0.117-0.35
				c-0.709-3.423-3.083-11.419-3.083-11.419s1.985,6.081,3.636,9.759l0.191-0.573l0.03,1.055c0.296,0.632,0.578,1.167,0.83,1.558
				l1.723-1.657l-0.861,2.297c0.993-0.91,7.203-4.821,8.682-5.803c0.172-0.134,0.284-0.216,0.313-0.225
				c0.039-0.013-0.081,0.071-0.313,0.225c-0.976,0.761-3.991,3.295-6.082,5.06l0.079-0.023l-1.435,1.722l1.722-0.287l-1.063,0.813
				c0.407,0.128,0.862,0.275,1.313,0.431h2.716l-0.861,0.631c2.579,0.788,8.037,2.239,8.037,2.239S292.378,294.82,290.082,294.724z"
				/>
		</g>
	</g>
</g>
<g id="Spoon">
	<g>
		<path style="opacity:0.35;" d="M321.93,433.38c0,0-65.012,8.548-95.637,11.493c-30.624,2.945-62.721,0.589-62.721,0.589
			s47.409,7.951,105.124,4.417s79.8-12.368,79.8-12.368L321.93,433.38z"/>
		<path style="fill:#92E3A9;stroke:#263238;stroke-miterlimit:10;" d="M300.352,423.201c0,0-19.691-5.626-32.148-4.822
			c-12.457,0.804-58.67,13.663-89.211,17.28c-30.541,3.617-67.511,6.43-75.548,6.43c-8.037,0-14.868-1.607-14.467,1.607
			c0.402,3.215,8.037,8.439,16.476,8.439c8.439,0,28.13,1.206,51.839-3.617c23.709-4.822,89.211-19.289,104.481-20.896
			c15.27-1.607,22.906-0.402,35.363,3.617s17.849,10.826,43.898,8.317c45.277-4.362,66.209-41.671,65.003-44.886
			c-1.206-3.215-20.896-0.804-48.222,8.439C330.491,412.351,309.997,423.603,300.352,423.201z"/>
		<path style="fill:none;stroke:#263238;stroke-miterlimit:10;" d="M91.235,444.09c0,0,3.675,2.827,13.57,5.371
			c9.894,2.544,30.249,1.696,66.999-5.654c36.751-7.35,62.476-13.57,80.569-16.962c18.093-3.392,31.945-3.392,41.557,0
			c9.612,3.392,21.202,10.177,45.514,7.067c24.312-3.11,49.472-20.072,60.78-31.945"/>
		<path style="fill:#263238;stroke:#263238;stroke-miterlimit:10;" d="M293.929,426.845c0,0-10.743-5.937-28.27-5.089
			c-17.527,0.848-61.911,11.591-74.632,15.831c-12.721,4.241-35.337,8.764-35.337,8.764l96.683-19.506
			C252.373,426.845,280.36,420.343,293.929,426.845z"/>
		<path style="fill:#263238;stroke:#263238;stroke-miterlimit:10;" d="M314.566,421.191c0,0-3.11,3.675,1.414,3.958
			c4.523,0.283,14.983-5.654,19.789-9.895c4.806-4.24,10.46-7.633,10.46-7.633S318.807,419.212,314.566,421.191z"/>
	</g>
</g>
<g id="Smoke">
	<g>
		<path style="fill:none;stroke:#263238;stroke-miterlimit:10;" d="M345.284,72.475c9.561-16.846,9.571-51.286-14.854-55.984
			c-9.368-1.801-20.294,0.069-25.587,8.905c-5.697,9.511-0.376,19.633,9.41,22.724c13.975,4.413,17.653-11.033,16.917-16.917"/>
		<path style="fill:none;stroke:#263238;stroke-miterlimit:10;" d="M273.799,183.46c6.129-26.98,19.274-51.986,37.54-72.722
			c8.245-9.36,18.085-17.511,26.101-27.111"/>
		<path style="fill:none;stroke:#263238;stroke-miterlimit:10;" d="M314.09,158.857c11.979-26.645,34.086-58.713,59.742-45.273
			c15.446,8.091,10.298,29.421-1.471,31.628c-1.471,0.276-2.885,0.345-4.219,0.236"/>
		<path style="fill:none;stroke:#263238;stroke-miterlimit:10;" d="M305.892,181.193c1.004-3.754,2.547-8.469,4.569-13.674"/>
		<path style="fill:none;stroke:#263238;stroke-miterlimit:10;" d="M274.577,114.162c-5.038,7.23-11.368,17.308-16.536,28.701"/>
		<path style="fill:none;stroke:#263238;stroke-miterlimit:10;" d="M283.361,102.551c0,0-2.174,2.543-5.437,6.951"/>
		<path style="fill:none;stroke:#263238;stroke-miterlimit:10;" d="M376.562,57.487c-7.465,20.67-25.12,33.13-25.12,33.13
			s-26.891,21.496-41.601,45.034"/>
		<path style="fill:none;stroke:#263238;stroke-miterlimit:10;" d="M378.981,29.732c1.177,6.538,1.065,12.676,0.085,18.348"/>
	</g>
</g>
</svg>
